<?xml version="1.0" standalone="no"?>
<!DOCTYPE svg PUBLIC "-//W3C//DTD SVG 20010904//EN"
 "http://www.w3.org/TR/2001/REC-SVG-20010904/DTD/svg10.dtd">
<svg version="1.0" xmlns="http://www.w3.org/2000/svg"
 width="314.000000pt" height="314.000000pt" viewBox="0 0 314.000000 314.000000"
 preserveAspectRatio="xMidYMid meet">
<metadata>
Created by potrace 1.14, written by Peter Selinger 2001-2017
</metadata>
<g transform="translate(0.000000,314.000000) scale(0.100000,-0.100000)"
fill="#000000" stroke="none">
<path d="M1370 2978 c-33 -9 -79 -47 -71 -58 2 -3 -27 -21 -65 -41 -54 -27
-69 -40 -68 -57 0 -11 -3 -19 -7 -16 -4 2 -10 -2 -13 -8 -3 -7 -3 -2 0 12 4
14 3 22 -1 18 -10 -10 -15 -59 -5 -53 7 5 23 -36 16 -42 -5 -6 -47 -13 -111
-18 -33 -4 -78 -12 -100 -20 -22 -8 -95 -25 -162 -39 -82 -17 -163 -42 -245
-76 -126 -54 -175 -82 -243 -144 -22 -19 -44 -36 -48 -36 -5 0 -6 -4 -2 -9 3
-6 -4 -15 -15 -21 -18 -10 -19 -14 -8 -28 9 -11 10 -14 1 -8 -9 5 -12 0 -11
-18 1 -15 6 -26 10 -26 4 0 8 -5 8 -11 0 -5 -5 -7 -11 -3 -6 3 -4 -5 6 -19 17
-27 42 -42 64 -38 7 1 10 -2 7 -7 -4 -6 3 -8 16 -4 16 4 19 2 13 -9 -7 -12 -6
-12 7 -1 13 10 18 10 24 1 5 -8 3 -10 -7 -4 -8 5 -11 4 -6 -1 11 -11 58 -13
51 -2 -3 5 0 8 7 7 8 -2 40 9 71 25 32 15 62 25 68 21 5 -3 10 -2 10 3 0 6 18
17 40 26 46 18 48 21 19 36 -14 8 -24 8 -33 1 -6 -6 -22 -7 -35 -4 -22 6 -22
6 9 38 l31 32 -20 25 c-12 14 -40 31 -66 38 -42 12 -62 30 -32 30 7 0 29 9 49
19 19 11 39 17 42 14 3 -4 6 0 6 7 0 11 3 11 12 2 9 -9 16 -8 32 6 14 12 17
13 11 2 -7 -12 -6 -13 6 -3 12 10 18 10 28 0 10 -9 11 -8 5 7 -6 16 -4 17 11
9 22 -13 57 -5 48 11 -4 6 -1 6 9 -2 12 -10 18 -9 28 3 9 11 17 12 31 4 11 -5
19 -6 19 0 0 5 7 12 16 15 15 6 15 4 3 -11 -13 -16 -12 -16 15 1 18 11 25 13
20 5 -6 -11 -5 -12 7 -2 12 10 18 10 28 0 10 -9 11 -8 6 5 -7 18 -7 18 63 4
12 -3 20 -1 17 4 -3 5 -1 11 5 15 5 3 10 1 10 -4 0 -6 7 -11 16 -11 8 0 13 4
10 8 -3 5 1 9 9 9 8 0 12 -3 10 -7 -2 -4 2 -7 10 -7 8 0 12 4 9 9 -3 4 0 8 5
8 6 0 11 -6 11 -12 0 -9 4 -8 10 2 9 13 10 13 10 0 0 -12 2 -13 9 -1 5 7 14
10 20 7 6 -4 11 -2 11 3 0 6 4 11 10 11 5 0 7 -8 4 -17 -5 -16 -4 -16 8 -2 13
16 38 15 38 -2 0 -6 -6 -7 -12 -3 -7 4 -3 -4 8 -17 28 -32 33 -50 21 -74 -9
-18 -9 -19 6 -6 20 16 23 1 5 -18 -11 -11 -10 -14 0 -18 10 -4 10 -8 0 -21
-11 -13 -11 -14 0 -8 11 7 13 1 9 -27 -2 -19 0 -40 6 -46 8 -8 7 -11 -2 -11
-7 0 -9 -5 -6 -10 4 -6 10 -8 15 -5 4 3 10 -4 13 -15 3 -11 1 -18 -3 -15 -5 3
-11 1 -15 -5 -3 -5 -1 -10 5 -10 6 0 8 -4 5 -10 -3 -5 -1 -10 4 -10 6 0 11 -5
11 -11 0 -5 -4 -7 -10 -4 -6 3 -7 -1 -4 -9 3 -9 9 -14 13 -11 4 2 8 -3 8 -11
0 -8 -6 -13 -12 -10 -6 2 -12 -2 -12 -10 0 -7 4 -11 9 -8 5 3 6 -6 2 -20 -4
-17 -2 -26 6 -26 10 0 10 -3 0 -15 -7 -9 -10 -19 -6 -22 4 -4 11 -1 16 7 6 9
12 11 17 5 5 -6 6 -9 4 -8 -2 2 -10 -2 -18 -8 -11 -10 -11 -15 -1 -27 9 -10 9
-13 1 -9 -6 4 -13 2 -15 -3 -2 -6 -72 -22 -157 -35 -84 -14 -187 -37 -228 -51
-116 -40 -188 -86 -178 -112 5 -12 3 -13 -10 -2 -13 11 -16 11 -13 -1 2 -8 -2
-13 -9 -12 -7 2 -10 -4 -6 -13 5 -13 7 -13 14 -2 7 11 9 11 9 -1 0 -9 8 -12
25 -9 14 3 28 1 31 -4 3 -4 9 -6 14 -3 5 3 11 1 14 -4 4 -5 1 -13 -5 -17 -8
-5 -9 -3 -4 6 5 8 4 11 -3 7 -9 -6 -9 -15 -3 -46 1 -2 8 2 16 9 13 11 14 10 8
-6 -6 -16 -5 -17 9 -6 13 10 18 10 24 1 4 -8 3 -9 -4 -5 -7 4 -12 3 -12 -2 0
-6 7 -13 16 -16 8 -3 12 -2 9 4 -3 6 -2 10 4 10 5 0 13 -5 17 -12 5 -7 11 -5
21 7 7 11 13 13 13 7 0 -7 7 -12 16 -12 8 0 12 4 9 10 -3 6 1 7 9 4 9 -3 14
-9 11 -13 -2 -4 2 -8 9 -8 8 0 12 6 10 12 -3 6 2 12 10 12 8 0 13 -4 10 -9 -3
-4 0 -8 5 -8 6 0 11 5 11 11 0 5 5 7 10 4 6 -4 7 -11 4 -17 -4 -7 -2 -8 5 -4
6 4 9 11 6 16 -3 5 -1 12 5 15 6 4 10 3 9 -2 -4 -20 2 -24 18 -12 11 10 14 10
9 2 -4 -7 -2 -13 3 -13 6 0 11 6 11 13 0 8 3 8 8 1 4 -6 16 -14 27 -17 19 -7
19 -7 1 7 -18 14 -18 15 3 13 11 -1 21 -5 21 -10 0 -5 8 -3 17 4 11 10 14 10
9 2 -5 -9 1 -13 18 -13 14 0 26 5 26 11 0 6 7 4 15 -5 17 -16 45 -11 45 8 0 6
4 5 9 -3 5 -7 21 -14 35 -14 19 0 26 -4 22 -14 -3 -8 -2 -11 4 -8 5 3 9 -3 9
-12 1 -31 8 -90 12 -99 3 -5 4 -26 4 -46 0 -21 4 -38 9 -38 4 0 6 -9 3 -19 -3
-11 2 -29 10 -41 l15 -21 -289 6 c-177 4 -330 2 -398 -4 -119 -12 -130 -14
-243 -37 -56 -11 -179 -56 -222 -81 -25 -15 -58 -40 -74 -57 -16 -17 -26 -25
-21 -17 5 10 4 12 -4 7 -6 -4 -9 -12 -5 -17 7 -12 -15 -41 -26 -34 -4 3 -6
-10 -5 -27 2 -18 8 -34 14 -36 6 -2 9 -8 5 -13 -3 -5 2 -9 11 -9 10 0 13 5 9
12 -4 7 -3 8 4 4 6 -4 8 -14 5 -24 -6 -15 -5 -15 10 -3 9 7 14 18 10 24 -3 6
-1 7 6 3 9 -6 9 -11 1 -21 -8 -10 -7 -14 2 -18 7 -2 9 -8 5 -13 -4 -5 -11 -4
-15 1 -4 6 -15 11 -25 13 -10 2 -34 12 -53 22 -19 11 -34 17 -34 14 0 -17 26
-47 65 -78 29 -22 40 -36 32 -39 -20 -7 -44 8 -26 17 8 3 2 4 -13 1 -15 -3
-30 -1 -33 5 -3 6 1 7 9 4 9 -3 16 -1 16 6 0 6 -5 8 -12 4 -6 -4 -8 -3 -5 4 5
6 -1 8 -15 4 -12 -3 -19 -1 -15 4 3 6 2 16 -2 23 -6 9 -8 5 -8 -12 0 -18 11
-32 43 -52 24 -15 44 -33 44 -39 0 -6 5 -4 11 4 9 12 10 11 6 -5 -4 -21 16
-49 27 -38 3 4 6 1 6 -5 0 -16 -11 -15 -39 4 l-23 17 17 -26 c10 -15 22 -24
31 -20 8 3 14 1 14 -5 0 -6 11 -9 25 -7 14 1 28 -2 32 -8 3 -6 1 -7 -5 -3 -7
4 -12 2 -12 -4 0 -7 8 -9 21 -5 16 5 19 4 14 -5 -5 -8 -4 -11 3 -6 6 4 20 -1
31 -10 19 -17 76 -30 67 -15 -3 4 3 7 12 6 27 -3 52 -16 52 -27 0 -6 -8 -4
-17 3 -16 13 -17 12 -5 -3 7 -9 21 -15 30 -13 9 1 22 0 27 -4 17 -9 35 -10 29
0 -3 5 0 9 5 9 6 0 11 -4 11 -10 0 -5 5 -10 11 -10 5 0 8 4 5 8 -3 5 2 9 10 9
9 0 13 -6 10 -14 -3 -8 -1 -11 4 -8 5 3 20 0 32 -6 20 -11 21 -10 11 3 -11 12
-9 14 10 12 12 -1 26 -3 31 -3 4 -1 5 -8 2 -17 -5 -14 -4 -15 8 -5 9 8 16 8
20 2 4 -5 18 -8 32 -5 14 3 30 1 37 -3 17 -10 47 -11 41 -1 -3 4 0 8 5 8 6 0
11 -8 12 -17 0 -15 2 -15 9 2 5 11 9 14 9 6 1 -9 9 -11 29 -6 58 15 64 14 69
-5 3 -11 9 -17 14 -15 4 3 6 13 3 23 -4 10 -3 13 3 6 4 -6 19 -10 33 -9 30 3
52 -4 45 -14 -2 -4 2 -8 10 -8 8 0 12 4 10 7 -3 4 11 7 29 7 19 -1 32 -5 30
-9 -3 -4 0 -8 5 -8 6 0 11 5 11 12 0 6 7 3 16 -8 15 -19 16 -19 9 0 -5 18 -4
19 12 5 20 -18 57 -14 46 4 -4 7 1 6 10 -2 19 -15 23 -26 5 -15 -7 4 -8 3 -4
-4 5 -9 13 -9 27 -2 10 6 19 13 19 16 0 3 -5 2 -12 -2 -7 -4 -8 -3 -4 5 9 13
26 5 26 -13 0 -7 12 -12 29 -12 17 0 28 3 26 7 -3 4 1 9 9 12 7 3 13 0 12 -6
0 -7 4 -12 9 -12 6 0 9 3 7 8 -1 4 2 7 8 7 5 0 10 -4 10 -10 0 -5 5 -10 11
-10 5 0 8 4 5 8 -3 5 1 9 9 9 8 0 12 -4 9 -9 -3 -4 2 -8 11 -8 10 0 13 -5 9
-12 -5 -8 -2 -9 10 -5 14 5 17 3 13 -8 -4 -8 -2 -17 3 -20 6 -4 10 -11 10 -16
0 -6 -6 -7 -12 -3 -10 6 -10 5 -1 -7 6 -8 10 -31 9 -53 -1 -24 3 -40 12 -43
10 -4 10 -8 0 -21 -8 -10 -8 -13 -2 -9 7 4 14 0 17 -8 4 -10 1 -12 -11 -8 -14
6 -15 5 -2 -9 8 -9 17 -14 20 -13 3 2 6 -5 6 -15 0 -12 -4 -16 -11 -10 -7 6
-11 2 -11 -9 0 -10 6 -17 12 -14 7 2 15 -1 20 -8 5 -8 3 -10 -6 -4 -10 6 -12
4 -7 -7 4 -11 -9 -26 -39 -47 -24 -18 -44 -37 -44 -42 0 -6 -4 -8 -9 -5 -5 3
-14 -1 -21 -9 -7 -8 -9 -15 -4 -15 5 0 2 -5 -6 -10 -11 -7 -11 -10 -2 -10 7 0
10 -5 7 -10 -4 -6 -3 -10 2 -9 13 3 43 -12 43 -23 0 -5 -5 -6 -12 -2 -7 4 -8
3 -4 -5 4 -6 12 -9 17 -5 6 3 13 -3 16 -15 3 -11 14 -23 24 -26 10 -4 19 -11
19 -17 0 -6 3 -8 7 -4 4 4 -3 16 -17 27 -24 19 -24 20 -2 9 13 -6 26 -18 29
-26 3 -9 12 -13 22 -8 30 12 81 13 74 0 -4 -8 -2 -7 7 1 7 6 19 9 28 6 10 -4
13 -2 8 5 -5 8 0 12 12 12 11 0 34 13 51 29 26 25 31 35 25 58 -13 55 -29 78
-58 83 -18 3 -32 14 -37 27 -13 35 -5 191 10 206 11 10 12 7 7 -13 -3 -14 -3
-19 0 -12 5 10 10 9 21 -5 13 -16 13 -16 2 7 -7 14 -12 26 -11 28 7 10 0 22
-10 16 -7 -5 -8 -3 -3 6 6 10 17 3 42 -26 l34 -39 -5 63 c-2 35 -11 74 -20 87
-10 15 -12 26 -6 30 6 4 7 11 4 17 -4 7 -2 8 5 4 6 -4 9 -12 6 -17 -3 -5 1 -6
9 -3 9 3 16 11 16 18 0 8 2 8 8 -1 8 -13 29 -13 50 0 7 5 12 3 12 -5 0 -9 3
-9 8 -2 4 6 23 14 42 17 25 5 31 4 20 -3 -12 -8 -9 -9 10 -6 14 3 27 5 30 6 3
1 16 1 29 0 13 -1 21 2 18 7 -4 6 0 10 8 10 8 0 12 -4 10 -8 -8 -12 22 -4 39
10 14 12 16 12 11 -1 -4 -9 0 -15 9 -15 8 0 12 7 9 16 -3 11 0 10 11 -3 9 -11
16 -14 16 -7 0 8 15 11 44 10 25 -2 51 3 59 9 10 9 17 9 27 -1 7 -6 10 -7 7
-1 -4 7 9 11 35 12 22 1 46 6 53 12 7 6 15 6 22 -1 8 -8 13 -7 18 2 6 8 4 10
-6 4 -8 -5 -11 -4 -6 0 11 13 49 17 42 5 -3 -5 -2 -10 3 -10 6 0 13 8 16 17 6
15 8 15 16 3 6 -8 10 -10 10 -5 0 6 12 12 26 13 15 1 34 8 42 15 9 6 13 7 9 1
-3 -6 0 -11 8 -11 8 0 11 5 8 10 -4 6 2 8 15 5 12 -4 25 -2 28 4 3 5 12 7 20
4 8 -3 14 -1 14 5 0 5 6 9 13 7 6 -1 22 3 35 10 12 7 27 10 32 7 6 -3 10 -1
10 5 0 6 4 9 9 5 5 -3 12 -1 16 5 4 6 11 8 16 5 5 -4 9 -2 9 4 0 5 10 13 23
17 38 12 130 79 175 128 84 91 105 181 66 290 -59 169 -201 287 -439 365 -106
34 -375 100 -481 117 -21 3 -47 9 -58 13 -12 5 -27 6 -33 4 -7 -3 -13 0 -13 7
0 6 4 9 9 6 5 -4 12 0 14 6 4 10 8 10 15 -1 8 -11 10 -11 14 0 4 12 7 12 22 0
14 -12 16 -12 10 4 -6 15 -4 16 13 6 16 -8 24 -7 33 4 15 18 34 20 24 3 -4 -7
1 -5 11 4 13 12 24 14 41 8 15 -6 26 -5 30 2 5 7 3 8 -6 3 -9 -5 -11 -4 -6 4
6 9 11 9 22 0 9 -7 14 -8 14 -1 0 6 11 9 25 7 14 -1 25 2 25 6 0 5 5 9 11 9 5
0 7 -6 3 -12 -6 -10 -5 -10 8 -1 8 7 19 9 23 5 5 -4 5 -1 1 6 -5 7 -1 13 11
14 10 0 23 2 29 2 6 1 20 8 30 16 16 13 17 13 9 0 -6 -11 -3 -10 12 3 11 9 23
14 26 10 4 -3 7 -2 7 4 0 5 18 15 40 22 22 6 40 15 40 19 0 4 14 13 31 21 47
21 152 130 177 183 30 64 28 94 -10 168 -52 100 -134 172 -263 231 -48 21
-121 38 -301 69 -138 23 -241 45 -246 53 -4 6 -8 20 -8 29 0 24 -48 55 -129
82 -79 27 -139 60 -191 105 -19 17 -39 32 -45 32 -49 6 -106 5 -135 -3z m-192
-243 c-3 -3 -9 2 -12 12 -6 14 -5 15 5 6 7 -7 10 -15 7 -18z m838 -165 c3 -14
9 -19 11 -12 3 6 11 12 19 12 9 0 12 -5 8 -12 -6 -10 -4 -10 7 0 18 17 32 15
25 -3 -5 -13 -2 -14 15 -5 11 6 25 9 32 6 7 -2 4 -5 -5 -5 -22 -1 -23 -17 -2
-25 8 -3 13 -2 10 2 -3 4 5 14 17 21 12 8 19 10 15 6 -4 -5 -3 -14 3 -22 10
-11 15 -11 28 -1 14 12 14 11 2 -5 -13 -16 -15 -16 -32 -1 -11 10 -19 13 -19
8 0 -12 58 -50 71 -47 5 2 9 -2 9 -8 0 -5 5 -7 10 -4 6 3 10 -2 10 -12 0 -15
2 -16 11 -3 9 12 10 11 6 -7 -4 -16 -1 -20 11 -16 12 5 14 1 10 -20 -3 -15 -2
-25 1 -23 3 2 15 0 26 -5 l20 -8 -20 -1 -20 -1 20 -16 c19 -15 19 -15 -10 -10
-16 4 -24 4 -17 1 6 -3 9 -11 6 -16 -4 -6 -2 -8 4 -4 6 3 14 1 18 -5 4 -8 3
-9 -5 -5 -6 4 -14 0 -18 -10 -13 -33 -38 -56 -95 -85 -86 -43 -154 -63 -288
-84 -19 -3 -48 -8 -65 -12 -16 -3 -40 -7 -52 -9 -12 -1 -36 -5 -53 -9 -38 -8
-38 -10 6 150 23 83 20 206 -5 253 -17 31 -14 47 4 32 13 -11 14 -10 10 2 -4
9 0 15 9 15 8 0 12 -5 9 -11 -4 -6 1 -5 10 3 10 8 20 11 24 7 3 -3 15 1 25 11
14 13 18 13 18 2 1 -11 2 -11 10 1 6 12 26 15 79 15 66 0 70 -1 77 -25z m-786
-12 c0 -11 -12 -10 -30 2 -12 7 -10 9 8 7 12 0 22 -5 22 -9z m15 -27 c3 -5 2
-12 -3 -15 -5 -3 -9 1 -9 9 0 17 3 19 12 6z m979 -33 c-3 -4 -11 -5 -19 -1
-21 7 -19 12 4 10 11 0 18 -5 15 -9z m80 -36 c3 -5 -1 -9 -9 -9 -8 0 -12 4 -9
9 3 4 7 8 9 8 2 0 6 -4 9 -8z m-1059 -12 c3 -6 -1 -7 -9 -4 -18 7 -21 14 -7
14 6 0 13 -4 16 -10z m21 -82 c5 4 5 3 1 -2 -12 -15 -34 -15 -34 0 0 9 4 11
12 4 7 -5 16 -6 21 -2z m-1018 -123 c-3 -3 -9 2 -12 12 -6 14 -5 15 5 6 7 -7
10 -15 7 -18z m1030 0 c-3 -3 -9 2 -12 12 -6 14 -5 15 5 6 7 -7 10 -15 7 -18z
m-988 -11 c0 -8 -19 -13 -24 -6 -3 5 1 9 9 9 8 0 15 -2 15 -3z m997 -90 c-3
-3 -12 -4 -19 -1 -8 3 -5 6 6 6 11 1 17 -2 13 -5z m-442 -395 c11 -16 1 -19
-13 -3 -7 8 -8 14 -3 14 5 0 13 -5 16 -11z m455 -5 c0 -8 -19 -13 -24 -6 -3 5
1 9 9 9 8 0 15 -2 15 -3z m33 -9 c-3 -9 -8 -14 -10 -11 -3 3 -2 9 2 15 9 16
15 13 8 -4z m383 -14 c-3 -5 1 -14 9 -21 13 -11 14 -10 10 1 -7 18 30 18 62 1
12 -7 33 -12 48 -12 16 0 24 -4 19 -11 -5 -8 -1 -8 14 0 11 6 23 16 26 23 3 7
3 3 0 -9 -5 -23 8 -25 66 -10 14 4 19 4 13 1 -7 -3 -13 -12 -13 -21 0 -12 3
-12 17 2 16 16 17 16 29 1 13 -19 37 -23 74 -12 l25 7 -23 -14 c-22 -13 -22
-13 13 -14 24 -1 33 3 28 10 -4 7 1 6 11 -2 9 -8 15 -20 12 -28 -3 -8 -1 -11
4 -8 6 3 10 1 10 -6 0 -8 4 -8 15 1 8 7 15 8 15 2 0 -5 9 -12 21 -15 12 -3 18
-10 15 -15 -3 -6 0 -9 6 -8 24 3 38 17 32 29 -4 7 -4 9 0 5 4 -3 8 -10 8 -15
0 -4 5 -15 11 -23 10 -13 10 -13 -5 -1 -22 16 -24 5 -4 -15 13 -12 15 -11 21
6 6 19 26 29 24 13 -4 -22 4 -32 29 -41 17 -7 21 -11 10 -11 -10 -1 -27 8 -38
19 -11 11 -20 16 -20 11 0 -6 9 -16 20 -24 11 -8 18 -16 16 -18 -10 -10 50 -6
64 4 12 9 13 8 4 -2 -17 -19 -5 -51 20 -52 20 0 20 -1 1 -9 -16 -7 -17 -9 -3
-9 12 -1 16 -8 13 -22 -3 -16 -1 -18 9 -10 9 8 13 7 13 -4 0 -8 -3 -12 -7 -10
-3 2 -12 0 -20 -6 -13 -7 -13 -9 0 -10 8 -1 18 -1 23 0 4 1 2 -8 -5 -18 -7
-11 -16 -17 -22 -14 -5 4 -7 -1 -2 -12 6 -16 4 -16 -11 -4 -9 8 -14 9 -11 4 4
-6 4 -16 0 -22 -15 -22 -150 -100 -219 -126 l-73 -26 -77 33 c-106 45 -187 86
-195 100 -4 6 -8 7 -8 3 0 -4 -9 -3 -21 3 -11 7 -18 14 -15 17 3 3 11 2 18 -4
7 -5 20 -9 28 -8 8 1 23 -3 33 -8 22 -10 49 -16 102 -23 40 -5 40 -5 20 14
-11 11 -74 36 -140 57 -230 71 -214 64 -220 99 -6 30 -1 130 9 208 6 44 24 81
36 73 5 -3 11 -1 15 5 3 5 8 10 11 10 3 0 3 -4 0 -9z m-271 -10 c3 -5 2 -12
-3 -15 -5 -3 -9 1 -9 9 0 17 3 19 12 6z m-101 -10 c3 -5 -1 -11 -9 -14 -9 -4
-12 -1 -8 9 6 16 10 17 17 5z m541 -1 c3 -5 1 -10 -4 -10 -6 0 -11 5 -11 10 0
6 2 10 4 10 3 0 8 -4 11 -10z m65 -4 c0 -2 -7 -7 -16 -10 -8 -3 -12 -2 -9 4 6
10 25 14 25 6z m-607 -31 c-3 -9 -8 -14 -10 -11 -3 3 -2 9 2 15 9 16 15 13 8
-4z m24 -55 c-1 -11 -5 -20 -9 -20 -10 0 -10 4 -2 24 8 22 13 20 11 -4z m856
5 c-3 -9 -8 -14 -10 -11 -3 3 -2 9 2 15 9 16 15 13 8 -4z m35 -40 c-3 -3 -9 2
-12 12 -6 14 -5 15 5 6 7 -7 10 -15 7 -18z m-880 -36 c-3 -8 -7 -3 -11 10 -4
17 -3 21 5 13 5 -5 8 -16 6 -23z m9 -53 c1 -21 1 -21 -9 2 -6 12 -15 22 -20
22 -4 0 -8 5 -8 10 0 20 36 -12 37 -34z m-11 -21 c9 -8 11 -15 6 -15 -5 0 -15
7 -22 15 -7 8 -9 15 -6 15 4 0 14 -7 22 -15z m-550 -127 c4 -6 3 -8 -3 -5 -5
3 -10 0 -10 -8 0 -10 4 -12 12 -5 7 5 16 6 20 2 5 -4 5 2 1 13 -7 19 -6 19 10
3 17 -17 19 -17 38 0 12 10 16 12 11 3 -6 -11 -4 -13 8 -8 11 4 17 1 17 -9 0
-8 5 -12 10 -9 6 4 8 11 5 16 -3 5 1 6 9 3 9 -3 14 -9 11 -13 -2 -4 3 -8 11
-8 8 0 13 6 10 12 -2 6 2 12 10 12 7 0 11 -4 9 -8 -3 -3 2 -12 9 -18 11 -9 16
-9 22 0 4 8 3 9 -4 5 -7 -4 -12 -3 -12 3 0 5 9 9 19 8 11 0 17 -5 15 -9 -3 -4
2 -8 11 -8 10 0 13 5 9 13 -6 9 -4 9 7 1 18 -14 61 -25 54 -14 -3 4 6 7 19 6
16 -1 22 -6 19 -16 -3 -10 -2 -11 4 -4 12 16 52 24 60 12 3 -6 1 -8 -5 -4 -6
3 -13 2 -16 -3 -4 -5 2 -8 11 -7 9 2 19 8 21 14 2 7 8 12 13 12 4 0 6 -8 3
-17 -5 -15 -3 -15 10 1 9 11 16 14 16 8 0 -7 3 -11 8 -11 21 4 32 -2 27 -13
-4 -7 1 -4 9 6 16 19 16 19 16 -2 0 -12 9 -27 19 -34 16 -10 18 -15 8 -27 -10
-12 -9 -14 6 -8 16 6 16 5 0 -21 -10 -17 -11 -22 -3 -14 22 19 31 14 18 -9
-11 -18 -11 -23 0 -26 10 -4 10 -8 0 -20 -11 -14 -10 -15 12 -10 14 4 19 4 13
1 -7 -3 -13 -13 -13 -22 0 -15 2 -15 10 -2 7 12 9 10 7 -8 -1 -12 -6 -21 -12
-18 -6 2 -11 -5 -11 -15 0 -12 4 -15 11 -9 8 6 12 5 12 -4 0 -22 -56 -26 -315
-21 -256 4 -257 4 -457 67 -172 55 -207 90 -150 152 14 15 25 24 25 21 0 -4 7
0 15 9 9 8 23 12 32 9 12 -5 14 -3 8 7 -6 10 -4 12 8 7 9 -3 19 -2 22 4 4 5
10 7 14 5 4 -3 13 -1 20 4 8 4 27 4 43 0 15 -5 26 -5 23 0 -3 4 2 11 11 14 10
4 13 2 8 -6 -4 -6 3 -4 16 5 19 13 27 14 39 4 10 -8 13 -8 8 0 -4 6 -1 14 5
16 7 3 14 6 15 6 1 1 5 -4 9 -11z m560 -52 c0 -16 -4 -22 -14 -19 -11 5 -11 7
0 14 10 7 10 9 -2 9 -13 0 -13 1 0 10 8 5 15 10 16 10 0 0 0 -11 0 -24z m239
-77 c-3 -4 2 -10 11 -13 8 -3 12 -2 9 4 -3 6 -3 10 0 10 10 0 35 -27 30 -32
-3 -3 2 -5 10 -5 8 0 12 4 9 9 -3 4 0 8 5 8 10 0 15 -13 13 -31 -1 -3 4 -6 11
-7 15 -1 52 -10 52 -12 0 -9 41 -6 47 3 5 8 8 6 8 -6 0 -10 5 -15 10 -12 6 3
10 -2 11 -12 0 -16 1 -16 9 2 5 11 9 14 9 7 1 -7 5 -11 10 -7 5 3 13 0 17 -7
4 -7 4 -10 -1 -6 -4 4 -13 4 -19 -1 -6 -5 -42 -16 -81 -24 -187 -42 -196 -42
-211 2 -13 40 10 138 32 138 7 0 11 -4 9 -8z m121 -21 c0 -7 4 -15 9 -16 6 -2
15 -8 22 -13 7 -7 12 -6 15 3 3 8 6 7 10 -4 5 -11 2 -15 -10 -13 -9 2 -17 4
-17 5 0 1 -8 3 -18 5 -25 5 -31 11 -24 30 8 18 15 20 13 3z m-323 -13 c-3 -9
-8 -14 -10 -11 -3 3 -2 9 2 15 9 16 15 13 8 -4z m-1304 -29 c0 -7 -2 -6 -6 2
-2 6 -8 10 -12 8 -4 -3 -8 1 -8 9 0 11 4 12 14 4 7 -6 13 -17 12 -23z m88 -88
c-3 -8 -6 -5 -6 6 -1 11 2 17 5 13 3 -3 4 -12 1 -19z m26 -3 c-3 -9 -8 -14
-10 -11 -3 3 -2 9 2 15 9 16 15 13 8 -4z m62 -15 c3 -6 -1 -7 -9 -4 -18 7 -21
14 -7 14 6 0 13 -4 16 -10z m-132 -45 c-3 -9 -8 -14 -10 -11 -3 3 -2 9 2 15 9
16 15 13 8 -4z m44 -81 c-3 -3 -12 -4 -19 -1 -8 3 -5 6 6 6 11 1 17 -2 13 -5z
m92 -50 c4 3 8 -1 8 -9 0 -11 -4 -12 -14 -4 -7 6 -13 17 -12 23 0 7 2 6 6 -2
2 -6 8 -10 12 -8z m159 -59 c-3 -3 -9 2 -12 12 -6 14 -5 15 5 6 7 -7 10 -15 7
-18z m1672 -19 c0 -3 -4 -8 -10 -11 -5 -3 -10 -1 -10 4 0 6 5 11 10 11 6 0 10
-2 10 -4z m-865 -56 c3 -5 1 -10 -4 -10 -6 0 -11 5 -11 10 0 6 2 10 4 10 3 0
8 -4 11 -10z m150 -10 c3 -6 -1 -7 -9 -4 -18 7 -21 14 -7 14 6 0 13 -4 16 -10z
m35 -120 c0 -5 -2 -10 -4 -10 -3 0 -8 5 -11 10 -3 6 -1 10 4 10 6 0 11 -4 11
-10z m15 -40 c-3 -5 -14 -10 -23 -9 -14 0 -13 2 3 9 27 11 27 11 20 0z m-85
-294 c-7 -7 -13 -7 -20 0 -6 6 -3 10 10 10 13 0 16 -4 10 -10z"/>
<path d="M1906 2582 c-3 -5 1 -9 9 -9 8 0 15 4 15 9 0 4 -4 8 -9 8 -6 0 -12
-4 -15 -8z"/>
<path d="M1956 2582 c-3 -5 1 -9 9 -9 8 0 12 4 9 9 -3 4 -7 8 -9 8 -2 0 -6 -4
-9 -8z"/>
<path d="M1686 1698 c3 -5 10 -6 15 -3 13 9 11 12 -6 12 -8 0 -12 -4 -9 -9z"/>
<path d="M1860 1286 c0 -3 9 -10 20 -16 11 -6 20 -8 20 -6 0 3 -9 10 -20 16
-11 6 -20 8 -20 6z"/>
<path d="M1910 1256 c0 -2 7 -7 16 -10 8 -3 12 -2 9 4 -6 10 -25 14 -25 6z"/>
<path d="M1950 1239 c0 -5 5 -7 10 -4 6 3 10 8 10 11 0 2 -4 4 -10 4 -5 0 -10
-5 -10 -11z"/>
<path d="M1295 1290 c-3 -5 -1 -10 4 -10 6 0 11 5 11 10 0 6 -2 10 -4 10 -3 0
-8 -4 -11 -10z"/>
<path d="M1035 730 c-3 -5 -1 -10 4 -10 6 0 11 5 11 10 0 6 -2 10 -4 10 -3 0
-8 -4 -11 -10z"/>
<path d="M1535 150 c3 -5 8 -10 11 -10 2 0 4 5 4 10 0 6 -5 10 -11 10 -5 0 -7
-4 -4 -10z"/>
</g>
</svg>
